<?xml version="1.0" encoding="UTF-8"?>
<svg viewBox="0 0 102 109" version="1.1" xmlns="http://www.w3.org/2000/svg" xmlns:xlink="http://www.w3.org/1999/xlink">
  <!-- Author: Waseem Dahman <dwaseem@icloud.com> -->
  <g stroke="none" stroke-width="1" fill="none" fill-rule="evenodd">
    <polygon id="Rectangle" fill="#5EBD3E" transform="translate(44.168675, 24.484637) rotate(-30.000000) translate(-44.168675, -24.484637) " points="11.7831325 18.4325542 77.7108434 18.4325542 82.3373494 30.5367208 6 30.5367208"></polygon>
    <polygon id="Rectangle" fill="#FFB902" transform="translate(49.727717, 34.963616) rotate(-30.000000) translate(-49.727717, -34.963616) " points="14.0083563 28.6619494 85.7362338 28.6717513 83.11679 41.2652834 13.7191996 41.2652834"></polygon>
    <polygon id="Rectangle" fill="#F78201" transform="translate(29.478224, 60.919549) rotate(-30.000000) translate(-29.478224, -60.919549) " points="23.9842481 54.8674653 34.9722 54.8674653 34.9722 66.971632 23.9842481 66.971632"></polygon>
    <polygon id="Rectangle" fill="#E23838" transform="translate(53.810747, 60.847848) rotate(-30.000000) translate(-53.810747, -60.847848) " points="24.8950846 54.7957643 82.7264099 54.7957643 82.7264099 66.8999309 24.8950846 66.8999309"></polygon>
    <polygon id="Rectangle" fill="#973999" transform="translate(59.974348, 71.185985) rotate(-30.000000) translate(-59.974348, -71.185985) " points="31.2274506 65.0646256 88.6124249 65.1405605 88.7212447 77.3073452 31.4682326 77.3073452"></polygon>
    <path d="M21.3337954,77.7287633 L30.412493,79.6894446 L95.4235003,79.8275033 L95.3578918,92.0449291 L26.5386147,92.0449291 C25.7153227,89.5577494 24.710806,87.2678199 23.5250646,85.1751405 C22.3393232,83.082461 21.6089001,80.6003353 21.3337954,77.7287633 Z" id="Rectangle" fill="#009CDF" transform="translate(58.378648, 84.886846) rotate(-30.000000) translate(-58.378648, -84.886846) "></path>
    <path d="M60.6751578,7.96627114 L23.3079928,29.5402139 C16.5312237,33.4527834 14.1987758,42.0999285 18.098328,48.854151 L39.2806196,85.5429564 C39.3273135,85.6265454 39.3765236,85.7090669 39.4247169,85.7925401 C42.2101113,90.6169848 40.5440771,96.793517 35.7035252,99.5882109 C30.8629733,102.382905 24.6809224,100.737467 21.895528,95.9130221 C19.1101335,91.0885774 20.7761678,84.9120451 25.6167196,82.1173512 C25.9862641,81.9039946 26.4330829,81.7088309 26.957176,81.5318602 C28.470019,81.0210203 29.2851482,79.3837323 28.7778187,77.8748774 C28.7169592,77.6938746 28.6382152,77.5194098 28.5427474,77.3540547 L13.446725,51.206977 C8.36356455,42.0920863 11.4738073,30.5614024 20.4648828,25.1941081 L58.026377,3.50553642 C66.4627673,-1.36521583 76.9490045,1.00338032 81.8035491,9.41169821 C86.6580937,17.8200161 83.754434,28.5848294 75.3180436,33.4555816 L92.3215159,62.9064594 C96.6444325,70.3939707 94.7306768,77.4888872 87.2181673,81.8262366 L50.6370036,102.946381 C49.762172,103.487678 48.9124734,103.977078 48.0875449,104.418312 L47.6522838,104.66961 L47.6426277,104.652885 C32.9658122,112.27818 26.2813931,104.539102 25.4784038,103.148283 C24.6227009,101.666162 26.2925338,101.204435 27.4958002,101.983539 C34.046917,106.225325 42.0135374,101.935133 48.0432536,98.4538745 L84.6244173,77.3337298 C89.7356405,74.3827637 90.3446645,69.892091 87.8140101,65.5088691 L81.4775811,54.533852 C80.8387939,53.4274402 79.4240306,53.0483555 78.3176187,53.6871426 L44.2609089,73.3497933 C41.7714822,74.7870644 38.5921417,73.9408391 37.1596531,71.4596961 L22.4617365,46.0021577 L22.465245,46.000132 C19.8790415,41.2145747 21.5702254,35.2024103 26.3270254,32.4560706 C31.1675772,29.6613767 37.3496282,31.3068148 40.1350226,36.1312595 C41.2765941,38.1085194 41.7736594,40.3274304 41.6262185,42.7879926 C41.5499782,44.0603195 42.5211445,45.150469 43.7953789,45.2229097 C44.246023,45.248529 44.6946981,45.1418133 45.0860118,44.9159375 C59.3329007,36.8475284 68.5634121,31.5182901 72.7775461,28.9282226 C79.0987471,25.0431214 81.2482121,18.8594649 77.2960434,12.0141079 C73.3438747,5.1687508 66.2650498,4.73894547 60.6751578,7.96627114 Z" id="Path" fill="#000000"></path>
  </g>
</svg>